Coordinates
version=1
nRows=9
nColumns=24
inDegrees=yes

Units are S.I. units (second, meters, Newtons, ...)
Angles are in degrees.

endheader
time	pelvis_tilt	pelvis_list	pelvis_rotation	pelvis_tx	pelvis_ty	pelvis_tz	hip_flexion_r	hip_adduction_r	hip_rotation_r	knee_angle_r	ankle_angle_r	subtalar_angle_r	mtp_angle_r	hip_flexion_l	hip_adduction_l	hip_rotation_l	knee_angle_l	ankle_angle_l	subtalar_angle_l	mtp_angle_l	lumbar_extension	lumbar_bending	lumbar_rotation
      0.99133333	     -2.00327306	     -1.66223006	     -0.22321195	     -0.09490862	      1.02157085	      0.29483396	    -12.28084250	      6.78516615	     -0.35827441	     -5.86783585	      9.66640876	     -4.03736774	      2.61670388	     18.58883596	     -0.93435081	     -2.30068167	      6.50946665	      3.20444087	     -4.52838047	     -1.93753632	     -3.32868521	     -0.23883331	      3.65020796
      0.99550000	     -2.06266765	     -1.60831959	     -0.30609056	     -0.08894451	      1.02095753	      0.29452055	    -12.28242740	      6.67366604	     -0.41663100	     -6.45391495	      9.83282504	     -3.83605740	      2.63777277	     18.60345735	     -0.82985948	     -2.02259702	      6.41900120	      3.13627320	     -4.37002569	     -1.63085499	     -3.22365286	     -0.30229939	      3.73129736
      0.99966667	     -2.07416043	     -1.54608804	     -0.37754001	     -0.08297846	      1.02044476	      0.29421955	    -12.34339485	      6.56674832	     -0.36556827	     -7.01369447	      9.86351730	     -3.91279134	      2.64650067	     18.57061173	     -0.71652956	     -1.73854915	      6.25600594	      3.03887021	     -4.23849339	     -1.56822794	     -3.20158451	     -0.37329656	      3.74903518
      1.00383333	     -2.14971434	     -1.47388100	     -0.47312431	     -0.07697752	      1.01987916	      0.29392618	    -12.28192987	      6.43753203	     -0.35857709	     -7.69018835	      9.97754127	     -3.79913363	      2.69334663	     18.60703185	     -0.59878846	     -1.48458922	      6.02304170	      2.89849594	     -4.15747587	     -1.33418288	     -3.05372380	     -0.47748922	      3.85225878
      1.00800000	     -2.20686632	     -1.39832532	     -0.55326560	     -0.07100405	      1.01936399	      0.29357094	    -12.20007904	      6.30181797	     -0.41578475	     -8.43910187	     10.06643562	     -3.64542358	      2.81616791	     18.64198389	     -0.46970605	     -1.24416976	      5.70457461	      2.72196739	     -4.11789461	     -0.82461808	     -2.97495341	     -0.53492407	      3.95713502
      1.01216667	     -2.15606893	     -1.28266864	     -0.61845325	     -0.06493889	      1.01902681	      0.29322738	    -12.24791393	      6.13210395	     -0.44179984	     -9.15785690	     10.05105185	     -3.66051353	      3.75172442	     18.53452710	     -0.29748962	     -1.01109923	      5.38852016	      2.44378384	     -4.12369699	      2.41295384	     -2.99952561	     -0.69233035	      3.98902161
      1.01633333	     -2.14228833	     -1.19310145	     -0.67998290	     -0.05893574	      1.01867621	      0.29287488	    -12.22841503	      6.00044663	     -0.37895091	     -9.92421330	     10.01014268	     -3.79852833	      3.76131594	     18.50171647	     -0.15218121	     -0.81606974	      4.95930918	      2.21249245	     -4.04056126	      2.42507549	     -3.00812391	     -0.79064323	      4.00926979
      1.02050000	     -2.18284392	     -1.08987847	     -0.76627996	     -0.05289001	      1.01827874	      0.29254054	    -12.09738405	      5.84263962	     -0.36176620	    -10.80167588	      9.99565010	     -3.79268524	      3.83200347	     18.51351736	     -0.00042690	     -0.61532173	      4.51128884	      1.93022380	     -4.07823381	      2.51660150	     -2.90849912	     -0.92024385	      4.12141579
      1.02466667	     -2.13621777	     -0.97216586	     -0.81951050	     -0.04683768	      1.01804284	      0.29214852	    -12.05365641	      5.67861464	     -0.35632796	    -11.67907232	      9.88510469	     -3.91998710	      3.85433725	     18.44287162	      0.17786238	     -0.44777423	      4.01007935	      1.67232602	     -4.06181432	      2.54373462	     -2.95491490	     -1.05179455	      4.14246560
